<svg xmlns="http://www.w3.org/2000/svg" viewBox="0 0 64 64" role="img" aria-label="OnionBird icon">
  <rect width="64" height="64" rx="12" fill="#FFF7EE"/>
  <path d="M 32 6 L 54 12 L 54 32 Q 54 48 32 58 Q 10 48 10 32 L 10 12 Z" fill="#4A2D67"/>
  <g fill="none" stroke="#9C6BB8" stroke-width="1.2">
    <path d="M 32 12 L 48 17 L 48 32 Q 48 44 32 52 Q 16 44 16 32 L 16 17 Z"/>
    <path d="M 32 18 L 42 22 L 42 32 Q 42 40 32 46 Q 22 40 22 32 L 22 22 Z"/>
  </g>
  <g transform="translate(32 32)">
    <path d="M -12 -4 Q -4 -10 8 -6 Q 14 0 12 6 Q 4 9 -8 6 Q -12 2 -12 -4 Z" fill="#E66100"/>
    <path d="M -12 -4 L -18 -6 L -16 0 L -18 4 L -12 0 Z" fill="#F9A11B"/>
  </g>
</svg>
